<svg xmlns="http://www.w3.org/2000/svg" width="600" height="400" viewBox="0 0 600 400"><rect width="100%" height="100%" fill="#DDDDDD"/><path fill="#999999" d="M153.8 195.705q0 4.21-1.4 7.74-1.41 3.52-3.95 6.07-2.55 2.54-6.12 3.95-3.58 1.4-7.95 1.4h-14.61v-38.32h14.61q4.37 0 7.95 1.42 3.57 1.42 6.12 3.95 2.54 2.53 3.95 6.05 1.4 3.53 1.4 7.74m-7.31 0q0-3.15-.84-5.66-.83-2.5-2.41-4.24-1.58-1.73-3.82-2.66t-5.04-.93h-7.45v26.98h7.45q2.8 0 5.04-.93t3.82-2.66q1.58-1.74 2.41-4.24.84-2.51.84-5.66m26.92 12.14v-4.59q-2.84.14-4.77.49-1.93.36-3.1.92-1.17.55-1.67 1.3-.5.74-.5 1.61 0 1.73 1.02 2.47t2.66.74q2.01 0 3.48-.73 1.48-.73 2.88-2.21m-13.83-14.29-1.17-2.09q4.69-4.29 11.29-4.29 2.38 0 4.27.78 1.88.78 3.18 2.17 1.29 1.39 1.97 3.33.68 1.93.68 4.24v17.17h-2.97q-.93 0-1.43-.28-.51-.28-.8-1.12l-.58-1.97q-1.03.93-2.01 1.63-.99.71-2.05 1.18-1.06.48-2.26.73-1.21.25-2.66.25-1.73 0-3.18-.46-1.46-.46-2.52-1.39t-1.64-2.31q-.59-1.37-.59-3.2 0-1.04.35-2.06.34-1.02 1.12-1.94.78-.93 2.03-1.75t3.06-1.43q1.82-.61 4.23-1 2.41-.38 5.51-.46v-1.59q0-2.73-1.17-4.04-1.16-1.31-3.36-1.31-1.59 0-2.64.37t-1.84.83q-.8.46-1.44.84-.65.37-1.45.37-.69 0-1.16-.36-.48-.36-.77-.84m32.04-4.69.45 2.15q.82-.82 1.73-1.52.92-.71 1.94-1.2t2.18-.76q1.17-.28 2.55-.28 2.22 0 3.94.75 1.73.76 2.88 2.12 1.15 1.37 1.75 3.26.6 1.9.6 4.18v17.3h-6.55v-17.3q0-2.5-1.14-3.86t-3.47-1.36q-1.7 0-3.18.76-1.49.77-2.81 2.1v19.66h-6.55v-27.19h4.01q1.27 0 1.67 1.19m34.15 11.74q1.22 0 2.12-.33t1.5-.91q.6-.59.9-1.41.31-.82.31-1.8 0-2.01-1.21-3.19-1.2-1.18-3.62-1.18-2.41 0-3.61 1.18-1.21 1.18-1.21 3.19 0 .96.31 1.78.3.82.9 1.41.59.6 1.51.93.91.33 2.1.33m7.4 15.48q0-.8-.48-1.3t-1.3-.78-1.92-.41-2.33-.2-2.55-.12q-1.31-.05-2.55-.21-1.09.61-1.76 1.43-.68.82-.68 1.91 0 .71.36 1.34.35.62 1.14 1.07.78.45 2.02.7 1.25.25 3.05.25 1.83 0 3.15-.28 1.33-.27 2.19-.76t1.26-1.17.4-1.47m-1.3-27.48h7.82v2.44q0 1.16-1.41 1.43l-2.44.45q.56 1.4.56 3.07 0 2.02-.81 3.65t-2.24 2.76q-1.43 1.14-3.38 1.77-1.94.62-4.2.62-.79 0-1.53-.08-.75-.08-1.46-.21-1.27.77-1.27 1.72 0 .82.75 1.21.76.38 2 .54 1.25.16 2.84.2t3.26.17 3.26.46q1.59.34 2.83 1.05 1.25.72 2 1.95.76 1.23.76 3.17 0 1.8-.89 3.49-.89 1.7-2.57 3.03-1.68 1.32-4.13 2.13t-5.58.81q-3.08 0-5.35-.6-2.28-.6-3.79-1.59t-2.26-2.29q-.74-1.3-.74-2.71 0-1.9 1.15-3.19 1.16-1.28 3.17-2.05-1.09-.56-1.72-1.49-.64-.92-.64-2.43 0-.61.23-1.26.22-.65.66-1.29.44-.63 1.1-1.2t1.56-1.02q-2.06-1.12-3.24-2.97-1.18-1.86-1.18-4.35 0-2.01.81-3.64.8-1.63 2.25-2.78 1.44-1.16 3.42-1.77 1.97-.61 4.3-.61 1.75 0 3.29.36t2.81 1.05m17.12 9.54h12.35q0-1.27-.36-2.4t-1.07-1.97q-.72-.85-1.82-1.34t-2.56-.49q-2.83 0-4.46 1.61-1.63 1.62-2.08 4.59m16.69 3.95h-16.82q.15 2.09.74 3.61.58 1.53 1.53 2.52.96 1 2.27 1.49t2.9.49 2.74-.38q1.16-.37 2.02-.82t1.51-.82 1.26-.37q.82 0 1.22.61l1.88 2.39q-1.09 1.27-2.44 2.13t-2.82 1.38q-1.47.51-3 .73-1.52.21-2.95.21-2.84 0-5.27-.94-2.44-.94-4.24-2.79-1.81-1.84-2.84-4.55-1.03-2.72-1.03-6.3 0-2.78.9-5.23t2.58-4.27q1.68-1.81 4.11-2.87 2.42-1.06 5.47-1.06 2.57 0 4.74.82 2.18.82 3.74 2.4 1.56 1.57 2.45 3.87.89 2.29.89 5.23 0 1.48-.32 2t-1.22.52m12.22-12.78.4 3.08q1.27-2.44 3.02-3.83t4.13-1.39q1.88 0 3.02.82l-.42 4.9q-.13.48-.39.68-.25.2-.67.2-.4 0-1.18-.14-.78-.13-1.52-.13-1.09 0-1.94.32t-1.52.91q-.68.6-1.19 1.45-.52.85-.97 1.93v16.75h-6.55v-27.19h3.84q1.01 0 1.41.36t.53 1.28m61.93 6.39q0 4.21-1.4 7.74-1.41 3.52-3.95 6.07-2.55 2.54-6.12 3.95-3.58 1.4-7.95 1.4H305.8v-38.32h14.61q4.37 0 7.95 1.42 3.57 1.42 6.12 3.95 2.54 2.53 3.95 6.05 1.4 3.53 1.4 7.74m-7.31 0q0-3.15-.84-5.66-.83-2.5-2.41-4.24-1.58-1.73-3.82-2.66t-5.04-.93h-7.45v26.98h7.45q2.8 0 5.04-.93t3.82-2.66q1.58-1.74 2.41-4.24.84-2.51.84-5.66m24.59-8.45q3.02 0 5.5.98 2.47.98 4.24 2.78 1.76 1.8 2.71 4.4.96 2.6.96 5.8 0 3.24-.96 5.83-.95 2.6-2.71 4.43-1.77 1.83-4.24 2.81-2.48.98-5.5.98-3.05 0-5.54-.98t-4.25-2.81q-1.77-1.83-2.73-4.43-.97-2.59-.97-5.83 0-3.2.97-5.8.96-2.6 2.73-4.4 1.76-1.8 4.25-2.78t5.54-.98m0 22.97q3.39 0 5.02-2.28t1.63-6.67q0-4.4-1.63-6.71-1.63-2.3-5.02-2.3-3.45 0-5.1 2.31-1.66 2.32-1.66 6.7 0 4.37 1.66 6.66 1.65 2.29 5.1 2.29m36.49-19.61-1.49 2.36q-.26.43-.55.6t-.74.17q-.48 0-1.02-.27-.55-.26-1.26-.59-.72-.33-1.63-.6-.92-.26-2.16-.26-1.94 0-3.04.82t-1.1 2.14q0 .88.57 1.48.57.59 1.51 1.04t2.14.81q1.19.36 2.42.78 1.23.43 2.43.97 1.19.54 2.13 1.38.94.83 1.51 2 .57 1.16.57 2.81 0 1.96-.7 3.61-.7 1.66-2.08 2.87-1.38 1.2-3.41 1.88-2.03.67-4.68.67-1.4 0-2.74-.25t-2.57-.7-2.28-1.06q-1.04-.61-1.84-1.33l1.51-2.49q.29-.45.69-.68.4-.24 1.01-.24t1.15.34q.54.35 1.26.74.71.4 1.68.75.97.34 2.45.34 1.17 0 2-.28.84-.28 1.38-.73t.8-1.04q.25-.6.25-1.24 0-.95-.57-1.56t-1.51-1.06-2.15-.81q-1.2-.36-2.46-.78t-2.47-.99q-1.2-.57-2.14-1.45-.94-.87-1.51-2.14-.57-1.28-.57-3.08 0-1.67.66-3.18t1.95-2.64q1.28-1.12 3.2-1.8 1.92-.67 4.44-.67 2.81 0 5.12.92 2.3.93 3.84 2.44m23.29 0-1.48 2.36q-.27.43-.56.6t-.74.17q-.48 0-1.02-.27-.54-.26-1.26-.59t-1.63-.6q-.91-.26-2.16-.26-1.93 0-3.03.82t-1.1 2.14q0 .88.57 1.48.57.59 1.51 1.04t2.13.81 2.43.78q1.23.43 2.42.97t2.13 1.38q.94.83 1.51 2 .57 1.16.57 2.81 0 1.96-.7 3.61-.7 1.66-2.08 2.87-1.38 1.2-3.4 1.88-2.03.67-4.68.67-1.41 0-2.74-.25-1.34-.25-2.57-.7-1.24-.45-2.28-1.06-1.05-.61-1.85-1.33l1.51-2.49q.3-.45.69-.68.4-.24 1.01-.24t1.15.34q.55.35 1.26.74.72.4 1.69.75.96.34 2.45.34 1.16 0 2-.28.83-.28 1.38-.73.54-.45.79-1.04.25-.6.25-1.24 0-.95-.57-1.56t-1.51-1.06-2.14-.81q-1.21-.36-2.47-.78t-2.46-.99q-1.21-.57-2.15-1.45-.94-.87-1.51-2.14-.57-1.28-.57-3.08 0-1.67.66-3.18t1.95-2.64q1.28-1.12 3.21-1.8 1.92-.67 4.43-.67 2.81 0 5.12.92 2.3.93 3.84 2.44m5.43-2.94h6.58v27.19h-6.58zm7.48-7.92q0 .85-.35 1.59-.34.74-.91 1.3-.57.55-1.34.88-.77.34-1.64.34-.85 0-1.61-.34-.75-.33-1.31-.88-.55-.56-.89-1.3-.33-.74-.33-1.59 0-.88.33-1.65.34-.76.89-1.32.56-.56 1.31-.89.76-.33 1.61-.33.87 0 1.64.33t1.34.89.91 1.32q.35.77.35 1.65m10.94 18.39h12.35q0-1.27-.36-2.4-.35-1.13-1.07-1.97-.72-.85-1.82-1.34t-2.55-.49q-2.84 0-4.47 1.61-1.63 1.62-2.08 4.59m16.7 3.95h-16.83q.16 2.09.74 3.61.58 1.53 1.54 2.52.95 1 2.26 1.49 1.32.49 2.91.49t2.74-.38q1.15-.37 2.01-.82t1.51-.82 1.26-.37q.82 0 1.22.61l1.88 2.39q-1.08 1.27-2.44 2.13-1.35.86-2.82 1.38-1.47.51-2.99.73-1.53.21-2.96.21-2.83 0-5.27-.94t-4.24-2.79q-1.8-1.84-2.84-4.55-1.03-2.72-1.03-6.3 0-2.78.9-5.23t2.59-4.27q1.68-1.81 4.1-2.87 2.43-1.06 5.47-1.06 2.58 0 4.75.82t3.73 2.4q1.57 1.57 2.46 3.87.88 2.29.88 5.23 0 1.48-.31 2-.32.52-1.22.52m12.21-12.78.4 3.08q1.27-2.44 3.02-3.83t4.14-1.39q1.88 0 3.02.82l-.43 4.9q-.13.48-.38.68t-.68.2q-.39 0-1.18-.14-.78-.13-1.52-.13-1.09 0-1.93.32-.85.32-1.53.91-.67.6-1.19 1.45t-.97 1.93v16.75h-6.54v-27.19h3.84q1.01 0 1.4.36.4.36.53 1.28"/></svg>